<?xml version="1.0" encoding="UTF-8"?>
<svg id="Layer_2" xmlns="http://www.w3.org/2000/svg" viewBox="0 0 5638.87 1602.98">
  <defs>
    <style>
      .cls-1 {
        fill: #f9f9f8;
      }

      .cls-2 {
        fill: #4959a5;
      }
    </style>
  </defs>
  <g id="Layer_1-2" data-name="Layer_1">
    <g>
      <path d="M2071.05,172.47l8.01-16.03c.49-.98,1.5-1.6,2.6-1.58l60.32,1.11c.63.01,1.25.23,1.74.63l23.22,18.78c1.27,1.03,3.14.78,4.1-.55l1.62-2.24c.33-.46.52-1,.54-1.57.27-7.75,2.27-65.14,2.27-67.31,0-2.01,10.14-29.79,12.87-37.26.41-1.11,1.46-1.85,2.64-1.86l63.87-.74c.73,0,1.43.26,1.97.76l28.43,26.24c.59.55.93,1.32.92,2.13l-.37,33.12c0,.3-.05.6-.15.88l-7.77,22.97c-.53,1.58.39,3.27,2.01,3.68l9.41,2.35c.95.24,1.95-.03,2.66-.7l40.02-38.13c2.13-2.03,5.57.11,4.68,2.92l-16.59,52.65c-.14.44-.38.83-.7,1.16h0c-1.19,1.19-1.1,3.14.2,4.21l5.15,4.25c.82.68,1.96.84,2.94.42l67.39-28.83c.46-.19.95-.27,1.44-.21l63.89,7.3c1.67.19,2.81,1.77,2.47,3.41l-21.02,100.6c-.01.06-.02.11-.03.17l-17.29,117.26c-.26,1.78-2.08,2.87-3.77,2.27l-69.74-24.72c-.1-.04-.2-.08-.3-.13l-14.67-7.17c-1.09-.53-2.41-.31-3.27.55l-5.54,5.54c-.71.71-1,1.75-.74,2.73l18.31,71.03c.36,1.41-.4,2.88-1.77,3.38l-33.07,12.27c-1.22.45-2.59.02-3.33-1.04l-31.51-45.23c-2.8-4.02-7.25-6.57-12.13-6.96l-7.46-.59c-5.85-.46-11.44,2.48-14.37,7.56l-41.81,72.5c-.77,1.34-2.48,1.82-3.83,1.08l-75.12-41.01c-1.41-.77-1.9-2.55-1.1-3.93l35.01-60.28c.63-1.09.48-2.46-.38-3.38l-8.42-9.01c-.81-.87-2.08-1.14-3.18-.68l-83.55,35.02c-1.68.7-3.58-.33-3.91-2.12l-15.89-87.01c-.28-1.54.74-3.03,2.28-3.31l67.53-12.57c1.4-.26,2.4-1.52,2.32-2.95l-.93-18.01c-.06-1.18-.84-2.19-1.95-2.56l-58.89-19.39c-1.51-.5-2.32-2.13-1.8-3.63l23.39-67.93c.04-.12.09-.23.15-.35Z"/>
      <path class="cls-1" d="M5053.29,877.67c9.03-10.45,18.71-20.4,27.21-31.26,12.59-16.1,26.18-31.68,42.98-42.82,27.81-18.44,57.68-33.03,92.63-32.09,24.2.65,44.17,10.34,58.4,29.47,10.18,13.68,13.47,30.32,11.62,47.42-2.08,19.22-6.32,37.97-14.08,55.81-1.08,2.48-5.66,13.32-8.04,17.17-.4.64,0,1.47.75,1.58,15.54,2.25,26.84,4.53,40.35,6.1,35.53,4.13,71.09,3.02,106.71,1.05,17.3-.96,34.65-.98,51.92.32,39.25,2.95,76.75-4.43,113.5-17.22,2.16-.75,36.01-14.1,52.3-12.07,8.99,1.12,12.02,8.59,6.71,15.91-.97,1.34-2,2.87-3.39,3.62-12.21,6.6-105.72,33.48-129.41,26.61-37.99-11-97.81-6.88-115.8-6.76-18.97.12-78.78.63-111.18-6.44-4.77-1.04-9.35-2.9-14.4-4.67-1.25-.44-2.63.11-3.23,1.29-2.41,4.73-8.39,16.57-11.44,23.16-15.07,32.5-30.07,65.03-44.97,97.61-6.92,15.12-16.91,41.97-3.55,47.56,0,0,0,0,0,0,15.05,3.65,29.68,4.14,42.89-5.01,7.07-4.89,13.29-11.07,19.59-16.99,10.67-10.03,21.18-20.24,31.59-30.55,3.22-3.19,5.89-6.95,9-10.68,0,0,0,0,0,0-10.98-12.45-25.7-19.5-36.5-32.01,0,0,0,0,0,0,6.12-3.83,10.76-2.97,15.06.04,6.8,4.76,13.54,9.65,20.06,14.79,8.18,6.45,17.41,4.97,22.43-4.18,3.38-6.15,26.31-33.18,32.24-40.72,0,0,0,0,0,0,10.4,3.79,11.01,4.87,7.87,13.56-1.32,3.67-2.91,7.24-4.89,12.12,0,0,0,0,0,0,8.49,0,16.03.39,23.52-.07,21.61-1.33,100.09,12.32,99.02,78.5-.15,9.61-.5,19.31-1.99,28.77-3.7,23.58-34.23,48.99-67.51,42.38-3.15-.62-6.04-2.5-10.23-4.3,0,0,0,0,0,0,.23,3.21.41,5.92.62,8.62,1.98,25.27,3.68,50.61-4.89,75.09-3.26,9.32-7.83,18.25-12.45,27.01-6.66,12.63-15.87,23.71-25.51,33.93-17.56,18.61-38.66,33.59-63.78,38.92-32.85,6.98-57.94-.53-80.39-30.73-7.4-9.95-5.41-23.85,3.52-32.41,12.44-11.92,26.69-15.03,43.21-10.86,14.12,3.56,28.4,6.51,42.68,9.44,14.56,2.99,29.23,2.38,43.5-1.33,14.83-3.86,24.93-14.09,29.74-28.23,3.6-10.57,5.2-21.9,6.98-33,1.46-9.07,3.15-18.4,2.48-27.45-1.07-14.46-3.71-28.83-6.35-43.12-.81-4.4-3.5-8.58-5.8-12.58-14.37-24.91-31.81-47.4-53.33-66.6-1.46-1.31-3.22-2.29-4.23-3,0,0,0,0,0,0-9.08,9.83-17.86,19.41-26.73,28.91-13.55,14.49-28.17,28.01-44.07,39.66-30.54,22.37-63.62,38.7-103.32,34.4-18.43-2-32.87-11.74-43.05-26.06-8.16-11.47-10.59-25.82-8.07-40.16,3.79-21.65,9.33-42.67,19.09-62.69,14.13-28.95,26.77-58.62,40.36-87.83,7.85-16.87,16.14-33.54,24.55-50.15,9.11-18.01,9.55-37.24,7.88-56.56-1.06-12.32-5.33-15.71-17.77-14.49-6.7.65-13.64,3.04-19.57,6.28-7.53,4.11-14.83,9.17-21.05,15.07-21.73,20.63-43.87,41.01-60.11,66.56-20.15,31.71-40.62,63.25-59.56,95.68-10.85,18.59-18.89,38.81-28.25,58.27-10.37,21.56-20.94,43.02-31.14,64.66-3.8,8.05-6.82,16.47-10.38,25.15,0,0,0,0,0,0h-98.94s0,0,0,0c1.27-10.72,5.16-20.21,9.35-29.38,18.09-39.59,36.62-78.97,54.91-118.46,3.76-8.12,7.16-16.4,11.77-27.02,0,0,0,0,0,0-9.05,3.91-16.1,6.83-23.04,9.99-23.24,10.56-46.24,21.71-69.76,31.58-9.33,3.92-19.73,5.61-29.8,7.37-11.09,1.95-22.37,2.82-32.55,4.04,0,0,0,0,0,0-6.03,8.12-11.62,15.62-17.18,23.15-18.38,24.87-40.81,45.17-66.53,62.48-23.91,16.09-48.62,29.98-76.57,37.23-35.06,9.09-69.8,8.97-103.15-6.97-24.23-11.58-42.24-29.14-52.24-54.81-6.7-17.19-13.26-34.09-10.6-55.25,0,0,0,0,0,0-3.38,3.55-5.33,5.56-7.23,7.6-11.56,12.45-22.73,25.28-34.74,37.28-19.89,19.88-40.36,39.21-64.51,54.01-17.06,10.45-34.95,19.4-54.94,22.53-28.69,4.49-54.54-.83-73.35-25.12-3.71-4.79-6.59-10.96-7.69-16.89-5.24-28.34-.84-55.68,10.7-81.89,13.15-29.87,25.4-61.48,25.41-61.48,0,0,0,0,0,0-1.54,1.21-88.26,95.13-119.81,126.98-8.67,8.76-18.17,16.64-28.36,23.57-15.9,10.81-39.71,25.85-55.52,30.64-18.33,5.55-37.09,7.96-56.04,3.13-13.16-3.35-24.57-10.21-34.21-19.64-10.72-10.49-15.32-23.89-16.28-38.59-1.15-17.52,2.1-34.48,7.22-51.12,8.98-29.23,41.48-98.61,38.89-95.6-11.27,13.11-146.8,158.44-159.2,168.95-22.58,19.15-48.2,32.48-77.49,37.22-25.86,4.19-49.62-.48-68.49-20.86-10.19-11.02-14.18-24.05-13.22-38.44.92-13.79,3.25-27.5,4.91-40.85-.21.18-1.24.88-2.02,1.78-10.69,12.3-42.34,46.34-47.69,50.82-23.83,19.96-49.4,36.89-79.96,44.84-36.24,9.43-67.16.05-92.07-27.61-7.29-8.09-12.71-18.05-14.59-29.1-1.88-11.11-3.34-22.35-4.11-33.59-.68-9.86-.14-19.8-.14-31.18,0,0,0,0,0,0-1.05,1.38-4.52,4.89-6.18,6.61-14.57,15.09-29.12,29.13-44.21,43.68-27.79,26.78-57.4,51.25-93.91,65.62-21.72,8.55-44.22,12.84-67.3,7.11-34.21-8.49-49.1-29.57-52.02-63.35-1.81-20.94,3.74-41.15,11.44-60.33,13.74-34.21,28.51-68.02,43.18-101.86,14.26-32.89,30.39-64.99,41.75-99.11,1.54-4.62,3.56-9.08,5.56-14.12h0s-72.85,0-72.85,0h0c3.69-9.45,7.22-18.51,11.15-28.59,0,0,0,0,0,0h74.99s0,0,0,0c3.2-6.95,6.02-12.94,8.73-18.97,14.69-32.72,29.57-65.36,43.82-98.27,3-6.93,6.73-9.47,14.1-9.3,16.65.4,33.33.39,49.98-.11,15.16-.45,30.28-1.77,46.01-2.74,0,0,0,0,0,0-3.32,15.46-29.14,73.28-32.83,81.09-7.23,15.31-14.71,30.5-22.04,45.76-.4.83-.42,1.84-.7,3.1,0,0,0,0,0,0h85.65s0,0,0,0c-3.82,9.19-7.55,18.15-11.63,27.97,0,0,0,0,0,0-3.55,0-7.48-.03-11.42,0-21.99.17-43.98.52-65.97.43-4.94-.02-8.36,1.74-10.74,5.62-2.94,4.8-11.73,25.51-13.94,30.69-10.68,25.02-21.31,50.07-32.35,74.93-9.58,21.55-19.86,42.78-29.51,64.3-8.28,18.46-16.39,37.01-24,55.76-3.1,7.62-5.48,15.75-6.65,23.86-.77,5.32.33,11.35,2.14,16.53,5.17,14.79,11.18,18.88,26.87,18.39,17.78-.56,22.1-2.08,22.1-2.08,24.03-4.12,99.14-73.08,105.91-81.1,1-1.18,2.07-2.29,3.14-3.41,8.64-9.05,13.98-30.14,20.22-48.31,10.57-30.77,27.66-58.21,50.1-82,16.65-17.65,61.45-59.96,67.1-63.42,22.65-13.89,45.28-27.79,70.71-36.31,20.57-6.9,41.62-11.85,63.26-12.59,27.67-.95,52.6,6.76,72.15,27.6,2.44,2.6,4.05,5.99,5.96,9.07,1.48,2.39,2.82,4.87,5.47,9.47,0,0,0,0,0,0,4.78-13.43,8.72-24.48,12.79-35.91,0,0,0,0,0,0h101.9s0,0,0,0c-.89,1.99-1.75,3.95-2.65,5.89-4.47,9.63-8.98,19.23-13.41,28.87-12.04,26.26-24.03,52.54-36.06,78.8-12.86,28.07-25.84,56.09-38.57,84.22-10.95,24.18-21.99,48.32-32.2,72.81-3.12,7.48-4.3,16-5.01,24.16-.41,4.7,1.15,10.01,3.27,14.34,1.58,3.21,5.28,7.19,8.4,7.52,14.52,1.56,29.82-.61,42.4-10.82,1.96-1.59,161.76-165.24,170.22-174.59,4.97-5.5,8.34-12.7,11.46-19.58,6.43-14.19,12.27-28.64,18.23-43.04,5.56-13.42,10.97-26.91,16.47-40.42,0,0,0,0,0,0h-74.46s0,0,0,0c.72-8.44,1.39-16.27,2.15-25.24,0,0,0,0,0,0,4.91-.69,9.7-1.83,14.51-1.95,19.32-.47,38.65-.58,57.97-.92,3.99-.07,7.96-.51,12.46-.81,0,0,0,0,0,0,4.41-8.78,9.12-17.51,13.25-26.5,7.75-16.9,14.96-34.04,22.77-50.91,6.7-14.47,14.12-28.6,20.79-43.08,2.18-4.72,5.8-5.02,9.8-5.08,0,0,93.91.61,101.13.74,0,0,0,0,0,0l-15.14,30.88c-15.87,30.99-30.39,62.67-46.07,95.38,0,0,0,0,0,0,0,0,85.59.84,85.59.84,0,0,0,0,0,0,0,0-4.66,26.77-4.66,26.77,0,0,0,0,0,0h-92.75s0,0,0,0c-6.15,14.3-11.82,27.71-17.68,41.03-12.56,28.56-25.31,57.05-37.82,85.63-5.99,13.68-11.29,27.67-17.52,41.24-8.31,18.11-17.43,35.85-25.88,53.91-22.91,48.97-4.72,63.81,6.12,67.33s27.23,6.99,46.86-6.98c23.72-16.88,131.95-137.4,145.59-153.29,4.33-5.04,52.18-85.96,57.59-98.44,1.24-2.86,2.56-5.67,3.72-8.61,2.05-5.18-3.99-9.81-8.42-6.42-1.4,1.07-2.68,2.3-3.91,3.61-8.87,9.44-17.5,19.11-26.56,28.36-1.05,1.07-2.29,1.96-3.6,2.78-1.1.68-2.19.4-3.14-.25-2.43-1.67-3.01-5.03-1.53-7.59,5.73-9.87,52.09-57.03,64.17-66.96,2.85-2.34,7.2-4,10.87-4.03,32.92-.31,65.85-.18,99.95-.18,0,0,0,0,0,0-5.16,11.27-10.03,21.68-14.71,32.18-20,44.88-39.74,89.87-59.97,134.64-13.81,30.56-28.39,60.77-42.38,91.24-6.25,13.61-9.59,27.89-7.85,43.08,1.08,9.4,8.75,16.7,18.21,17.09,12.02.49,23.98-.1,34.63-6.84,1.67-1.06,20.1-15.18,21.88-17.04,17.93-18.78,35.75-37.66,53.65-56.47,12.09-12.71,21.81-26.7,25.64-44.24,8.33-38.13,28.38-70.07,54.05-98.58,14.45-16.05,82.16-93.56,171.75-102,28.89-2.72,57.84-5.8,85.33,6.86,31.42,14.47,53.6,37.46,59.55,72.43,4.88,28.68,1.06,57.03-9.38,84.31-2.7,7.05-5.41,14.12-8.59,20.96-3.63,7.81-7.78,15.38-11.72,23.04-2.36,4.59-4.78,9.15-7.56,14.47-1.89,3.66,12.5,2.82,14.87,2.43.86-.14,4.35-.9,5.89-1.35,4.12-1.2,7.03-1.63,11.06-3.09,34.91-12.67,69.66-25.68,102.08-44.13,5.66-3.22,10.27-7.09,13.15-13.1,11.91-24.85,25.41-48.42,36.89-73.47,4.11-8.96,19.28-33.11,8.56-38.84,0,0,0,0,0,0-12.74-6.17-23.21-3.63-31.33,6.37-4.12,5.07-27.32,33.48-29.65,38.21-.03.07-.07.14-.1.2-2.88,5.77-11.63,2-9.45-4.07,2.82-7.86,28.42-47.07,38.43-55.87,22.33-19.63,43.84-32.46,71.78-36.13,12.62-1.66,24.06,2.7,33.97,11.26,17.22,14.89,23.42,33.42,19.15,55.45-2.2,11.36-5.32,22.55-8.03,33.81h0s-.56,3.1-.56,3.1c.45.21-.02,0,.43.2ZM4635.93,914.28c-.5-5.5,7.34-7.43,9.22-2.24.04.11.07.21.09.3,6.34,24.69,19.41,44.9,39.62,60.62,7.7,5.99,15.78,10.4,26.02,11.53,0,0,0,0,0,0,21.96-47.28,31.38-95.83,31.56-148.55.1-30.66-22.58-41.66-34.67-42.37-18.1-1.07-46.4,1.02-74.24,36.43-65.77,83.64-87.86,164.63-96.57,197.8-6.14,23.35-7.45,47.85,2.48,69.85,5.22,11.58,12.49,21.45,22.38,23.39,12,2.36,46.02,7.2,85.33-34.43,19.26-20.4,54.84-78.45,57.67-85,0,0,0,0,0,0-4.26-1.26-23.63-12.46-30.37-17.52-12.82-9.62-20.25-22.53-27.64-35.96-5.63-10.24-10.18-20.67-10.78-32.54-.02-.44-.06-.88-.1-1.31ZM3617.17,838.68c-22.9,22.05-41.82,47.26-58.5,74.11-9.44,15.19-17.44,31.29-25.86,47.11-15.13,28.45-34.69,79.66-16.09,126.98,3.56,9.05,9.93,14.72,19.63,13.93,51.84-4.22,94.37-56.73,106.69-74.78,1.31-1.92,2.89-3.65,4.3-5.5,14.09-18.58,27.07-37.85,37.15-58.96,9.73-20.38,20.06-40.5,29.04-61.21,8.3-19.14,15.68-38.73,22.48-58.46,3.94-11.42,1.24-22.27-7.63-31.18-2.94-2.96-53.55-27.55-111.21,27.95ZM5325.74,1040.83s0,0,0,0c5.8,5.08,11.02,9.14,15.64,13.8,10.05,10.14,20.01,20.39,29.6,30.97,12.22,13.48,42.93,36.38,80.16,10.35,12.32-8.61,17.72-29.46,10.69-41.22-8.57-14.36-19.18-26.56-36.23-32.19-22.37-7.39-45.02-7.68-67.9-4.93-7.61.92-14.53,4.6-20,10.32-3.89,4.07-7.66,8.25-11.96,12.89Z"/>
      <path class="cls-1" d="M1011,1083.71c-.76,1.22.17,2.79,1.61,2.71,16.74-.89,32.56-3.85,47.35-10.96,7.26-3.49,24.87-13.33,25.91-14.91,77.87-118,103.16-145.36,116.7-156.76,59.98-50.5,112.91-56.73,126.84-58.79,47.59-7.05,75.26.69,102.19,20.26,18.81,13.66,37.47,36.4,42.01,67.03,5.34,36.01.23,70.87-12.99,104.66-1.69,4.33-22.83,44.22-23.88,46.55-.51,1.13.26,2.4,1.5,2.49,13.25.9,24.83-1.4,36.1-4.53,20.14-5.59,36.76-18.05,53.03-30.4,6.02-4.57,10.24-12.29,13.64-19.36,9.95-20.65,19.02-41.72,28.52-62.59,15.82-34.77,31.34-69.69,47.69-104.22,11.09-23.42,24.47-45.8,34.88-69.49,14.12-32.11,31.76-62.24,50.38-91.67,20.87-32.98,45.25-63.66,77.14-86.95,35.15-25.68,74.8-38.29,118.64-36.24,2.43.11,4.83.83,7.86,1.66,1.44.39,1.78,2.28.57,3.15s-2.16,1.53-3.17,2.04c-27.64,13.87-48.19,35.41-64.45,61.06-25.99,41-50.55,82.88-71.86,126.53-12.53,25.66-23.09,52.32-36.5,77.48-8.84,16.59-16.07,33.92-25.12,50.43-13.52,24.66-24.35,50.8-36.14,76.4-15.42,33.49-30.65,67.06-46,100.58-12.84,28.05-27.74,55.27-34.86,85.61-1.81,7.71-3.35,15.68-3.47,23.55-.4,26.5,17.28,36.29,40.57,34.32,25.65-2.17,46.69-14.7,65.31-31.37,19.16-17.15,35.69-36.77,50.3-57.96.77-1.11,1.3-2.39,2.04-4.04.46-1.03-8.23-7.2-8.89-7.62-1.73-1.12-3.25-2.15-4.87-2.96-28.35-14.22-47.9-36.44-59.01-65.92-1.08-2.88-.21-6.49.9-10.2.42-1.42,2.31-1.71,3.14-.49,9.55,13.85,19.88,26.84,32.77,37.03,13.46,10.64,29.02,18.25,46.13,24.24.72.25,1.53,0,1.99-.62,1.54-2.05,3.12-3.98,4.34-6.11,24.66-43.01,43.56-88.21,50.76-137.6,2.55-17.49,3.64-35.17-3.43-52.15-4.67-11.23-11.33-20.84-24.25-22.81-14.19-2.16-27.86-.49-39.69,8.95-2.74,2.19-5.67,4.13-8.75,5.87-1.56.88-3.28-.88-2.39-2.44,12.94-22.76,31.97-37.03,58.94-41.02,16.28-2.41,32.28-2.57,48.6-.14,24.13,3.6,40.38,17.59,52.31,37.57,9.28,15.53,12.58,32.8,12.71,50.7.25,34.54-7.65,67.17-23.19,98.01-3.54,7.02-6.19,14.5-9.97,21.37-2.59,4.7-6.66,8.55-9.67,13.06-6.46,9.68-12.71,19.51-18.95,29.34-1.89,2.97-3.6,6.05-5.95,10.14-.67,1.17.15,2.63,1.49,2.66,33.68.76,163.18-59.38,175.31-63.53,61.08-20.9,108.15-11.95,122.42-7.33,34.66,11.21,57.43,28.5,60.12,30.44,17.37,12.46,20.2,30.09,15.77,49-4.35,18.56-17.5,28.83-36.09,32.9-29.45,6.45-54.05-3.55-76.64-21.35-11.8-9.3-25.51-14.99-40.23-15.67-10.78-.5-23.51,3.32-27.68,13.7-2.98,7.41-2.4,25.03,13.47,29.48,5.12,1.44,10.48-17.78,12.24-26.12.2-.96,1.15-1.57,2.11-1.35,17.7,4.09,27.89,26.49,19.46,42.56-12.69,24.19-45.88,21.38-59.07,5.02-20.01-24.82-8.76-61.63,20.23-70.83,18.69-5.93,34.49-.72,50.5,6.9,4.75,2.26,9.11,5.56,13.2,8.93,10.22,8.44,21.47,14.36,34.83,15.75,12.87,1.34,25.7,4.23,38.69,1.33,11.92-2.66,20.8-8.77,22.78-21.78.94-6.19,2.14-28.22-6.82-38.25s-36.53-27.51-62.64-32.28c-24.59-4.49-50.33-4.17-74.98-.06-21.17,3.53-87.32,31.3-110.59,42.24-17.3,8.13-116.97,42.85-129.75,47.22-1.2.41-39.59,35.23-58.76,50.63-28.65,23.02-61.19,38.8-96.17,48.92-32.75,9.48-95.13,15.15-140.96-25.75-12.01-10.72-16.95-24.21-20.02-39.05-2.74-13.2-2.94-26.37.27-39.58,4.43-18.24,8.86-36.46,17.38-54.42.75-1.59-1.03-3.17-2.52-2.24h0c-25.9,16.24-53.53,26.56-84.7,24.32-6.08-.44-9.45,1.81-12.51,7.18-12.61,22.12-28.98,41.31-47.54,58.68-21.97,20.57-46.32,37.94-72.57,52.54-30.12,16.75-62.29,26.63-97.13,24.96-11.91-.57-23.8-2.55-35.58-4.56-13.63-2.33-25.76-9.16-36.83-16.67-33.31-22.58-51.21-54.33-51.6-94.98-.13-13.79.91-27.58,1.54-42.16.05-1.25-1.18-2.17-2.37-1.75-2.24.79-4.38,1.51-6.4,2.46-22.06,10.36-44.9,16.84-68.29,14.1-.5-.06-1,.08-1.38.41-3.57,3.02-18.47,18.56-21.67,22-15.48,16.65-51.5,62.29-86.77,84.51-21.79,13.73-44.52,25.21-69.54,31.53-27.51,6.95-55.57,8.56-82.9.7-28.32-8.15-52.44-23.65-69.27-48.84-23.01-34.43-27.24-71.68-18.56-111.59,9.29-42.72,27.29-81.12,53.66-115.76,22.72-29.85,49.7-55.23,80.75-76.33,28.61-19.43,59.6-33.1,93.45-40.6,19.18-4.25,38.29-8.79,58.05-7.78,30.43,1.55,58.23,10.82,80.69,31.99,17.48,16.47,27.18,37.56,30.86,61.26,3.48,22.41.9,44.56-4.73,66.26-6.02,23.18-14.05,45.73-25.5,66.89-1.88,3.47-4.04,6.79-6.47,10.67ZM942.53,1074.86c.84.44,1.89.14,2.36-.69s.93-1.65,1.28-2.55c4.86-12.36,9.77-24.7,14.47-37.12,13.9-36.71,18.22-74.7,15.32-113.72-1.13-15.15-6.77-28.33-15.99-40.09-6.27-8-14.54-12.16-24.95-12.42-14.85-.38-28.58,3.44-41.74,11.18-14.28,8.4-48.26,25.29-99.31,123.38-15.57,29.92-26.22,61.62-35.33,93.93-5.62,19.93-9,40.24-8.62,61.02.26,14.11,2.68,27.79,10.11,40.15,8.92,14.83,21.52,22.83,39.36,22.47,26.26-.53,48.13-10.96,67.45-28.01,25.26-22.29,44.83-49.03,61.45-78.06,3.59-6.27,6.37-13,9.27-19.13.24-.51.22-1.11-.04-1.61s-.38-.75-.56-.86c-2.57-1.48-5.1-3.07-7.77-4.35-17.79-8.55-31.5-22.7-43.04-37.51-12.65-16.23-17.57-37.01-19.79-57.79-.45-4.17,1.54-6.06,5.38-6.46.84-.09,1.62.47,1.85,1.29.63,2.21,1.25,4.31,1.8,6.42,9.71,37.22,33.36,62.78,67.03,80.55ZM1371.58,1075.31c.94.42,2.05-.06,2.39-1.03,4.35-12.14,8.73-23.93,12.74-35.84,11.45-34.01,16.9-69.04,16.73-104.89-.07-14.36-2.48-28.42-7.66-41.93-5.37-14.03-17.13-24.01-34.45-23.49-13.83.42-25.91,5.12-37.34,12.21-22.96,14.24-40.76,34.09-58.08,54.32-16.04,18.73-27.74,40.4-40.25,61.48-18.8,31.68-30.49,66.16-40.16,101.52-5.72,20.93-10.78,41.72-9.83,63.69.7,16.37,7.46,30.17,16.62,42.98,5.98,8.37,14.21,13.04,24.95,14.63,10.24,1.52,19.99.09,29.59-1.93,19.96-4.2,36.94-14.41,51.28-28.86,7.03-7.09,14.05-14.22,20.62-21.73,18.83-21.54,34.19-45.29,45.38-71.9.33-.78.05-1.7-.65-2.17-8.22-5.58-16.34-10.99-24.35-16.57-27.11-18.89-40.83-45.6-45.12-77.74-.31-2.29-.55-4.7-.18-6.95.52-3.16,2.31-4.9,6.25-3.91.65.16,1.16.68,1.31,1.33,9.17,39.44,31.17,69.37,70.19,86.79Z"/>
      <path class="cls-1" d="M523.8,1172.04s-14.09,34.09-68.57,102.19c-35.4,44.24-130.64,78.06-156.82,82.14-50.91,7.93-86.14,14.97-142.42-6.09-20.11-7.53-53.08-34.17-69.47-70.54-21.94-48.69,13.62-97.68,60.02-107.74,15.35-3.33,31.07-1.35,45.44,6.86,11.32,6.47,21.35,13.83,28.72,25.06,10.65,16.25,13.12,33.49,10.55,52.34-1.58,11.59-6.19,21.32-12.57,30.86-4.33,6.48-35.47,22.73-52.94,24.35-1.75.16-2.56,2.21-1.41,3.54,2.06,2.38,4.47,4.58,6.97,6.57,12.25,9.79,27.3,15.35,42.92,16.61,13.86,1.12,28.83-.19,43.52-2.21,25.63-3.52,60.56-10.15,78.99-28.31s18.97-20.52,18.97-20.52c9.08-14.43,50.97-103.13,60.22-123.97,2.51-5.65,6.56-10.63,8.87-16.34,7.09-17.53,13.6-35.3,20.51-52.9,3.76-9.57,7.9-19,11.85-28.5,1.66-3.98,3.26-7.99,4.88-11.99.81-2,1.78-4.85,2.6-7.37.62-1.9-1.48-3.52-3.18-2.46-63.56,40.05-69.97,41.49-128.54,59.19-32.54,9.83-66.83,6.53-100.04-1.44-13.88-3.33-71.17-25.46-105.8-75.71-18.86-27.36-25.22-60.65-27.38-94.06-1.07-16.46.98-32.65,4.2-48.61,5.25-26.05,10.8-52.08,17.6-77.76,3.71-14,8.65-28.02,15.73-40.74,67.84-122,137.8-187.45,155.61-198.94.56-.36,56.51-52.23,181.44-97.88,34.21-12.5,111.87-39.87,189.42-15.61,20.12,6.29,51.87,29.55,56.68,41.53,49.2,122.53-77.34,202.59-83.14,206.01-95.48,56.46-169.41,88.71-186.09,94.05-17.05,5.46-34.05,11.07-51.28,15.93-17.53,4.94-35.16,9.72-52.99,13.31-17.56,3.54-35.38,6.02-53.19,8-17.28,1.92-34.68,2.71-53.25,4.03-1,.07-1.82.83-1.96,1.82-4.48,30.14-9.66,59.66-12.87,89.4-2.13,19.78-1.09,39.76,2.75,59.63,2.9,14.99,7.16,29.16,16.63,41.05,16.92,21.25,39.01,34.72,65.61,40.58,20.7,4.56,40.94,2.12,60.85-4.41,5.99-1.96,41.68-19.39,48.4-22.97,22.3-11.89,23.46-11.89,78.42-68.99,2.39-2.48,35.34-48.73,37.99-54.18.05-.09.09-.17.15-.26,2.27-3.35,49.94-73.42,84.2-86.03,17.81-6.56,36.52-6.66,55.21-4.88.02,0,.05,0,.07,0,3.62.38,4.85,5.2,1.21,5.34-21.79.85-46.2,64.91-47.29,67.58M269.56,769.86s-6.74,16.97-8.76,26.11c-.24,1.08.37,2.21,1.44,2.5.16.04.31.06.45.05,32.51-1.85,64.87-5.08,96.87-11.32,19.81-3.86,39.64-7.27,58.67-14.78,117.86-46.51,171.82-83.16,182.94-91.01,27.44-19.37,62.28-83.85,67-94.96,6.86-16.15,8.71-33.39,8.15-50.78-.55-17.18-5-32.89-19.9-43.66-8.27-5.98-70.01-15.23-91.59-7.15-22.77,8.52-45.93,16.23-66.23,29.32-180.3,116.24-229.02,255.68-229.02,255.68Z"/>
      <path class="cls-1" d="M2603.29,1031.61c-5.42,4.93-9.73,8.44-13.58,12.41-9.74,10.04-19.69,19.91-28.79,30.51-20.72,24.11-37.99,50.1-45.63,81.77-5.01,20.78-6.99,41.23-.53,61.82,7.92,25.27,27.96,39.74,59.68,45.14,12.23,2.08,36.23,6.99,64.17-6.86,15.31-7.58,34.33-4.47,45.06,8.44,13.71,16.5-12.13,45.53-17.95,50.23-14.58,11.77-31.85,14.75-49.76,13.3-23.99-1.94-43.65-13.84-62.55-28.05-9.98-7.51-18.37-16.54-25.38-26.05-12.76-17.32-22.91-36.45-27.44-58.07-3.88-18.54-3.46-36.95-.79-55.53.58-4.04-.27-8.28-.5-13.18-4.56.24-7.89.05-11.06.64-11.79,2.2-21.98-.64-31.89-7.51-14.25-9.89-24.4-23.02-29.85-38.89-3.96-11.54-3.77-24.43.61-36.24,9.72-26.23,26.45-46.76,51.65-59.64,5.26-2.69,11.01-5.03,16.79-5.97,17.49-2.85,35.24-3.89,52.66-.17,8.04,1.72,15.92,4.45,23.01,9.96,6.86,5.33,15.77,8.03,24.03,12.01,4.83-6.29,5.48-12.92,5.79-19.45.48-9.98.66-19.98.51-29.97-.18-11.71-.25-23.28,9.02-34.11-4.37-.4-6.81-.87-9.23-.81-24.97.64-49.94,1.77-74.92,1.92-15.23.09-30.46-1.42-45.71-2-9.99-.38-19.62.65-29.41,3.82-32.51,10.53-65.86,12.8-99.6,7-10.1-1.74-20.2-3.74-30.07-6.48-5.96-1.66-11.53-4.85-17.16-7.58-4.77-2.31-9.37-4.95-14.05-7.43-7.29-3.86-11.76-9.52-11.97-18.1-.12-5,1.72-8.34,6.9-9.37,12.19-2.43,24.44-3.47,36.3,1.12,11.44,4.43,22.54,9.72,33.95,14.22,12.03,4.74,24.71,6.94,37.32,9.74,17.9,3.98,35.6,1.63,53.64,1.85-10.73-3.71-21.28-8.11-32.23-10.98-22.19-5.83-40.16-18.7-57.56-32.72-3.61-2.91-6.93-6.23-10.17-9.56-3.32-3.41-3.17-6.95.01-10.59,3.09-3.54,6.51-3.6,10.18-1.39,2.24,1.35,4.64,2.76,6.27,4.73,20.64,24.98,49.25,36.65,78.38,47.82,21.62,8.3,43.88,11.79,66.85,12.12,32.95.47,65.9.95,98.84,1.58,10.97.21,19.19-5.47,27.29-12.53-6.32,0-12.64.08-18.95-.02-18.65-.28-37.37.26-55.91-1.28-11.41-.95-22.68-4.68-33.77-7.97-9.56-2.83-18.97-6.38-28.1-10.41-5.85-2.58-11.17-6.45-16.54-10.03-3.47-2.32-6.57-5.19-9.87-7.78-17.05-13.38-29.1-30.71-37.76-50.22-4.93-11.11-5.77-23.34-5.1-35.65.12-2.3.77-4.05,1.76-5.49,3.61-5.24,11.21-5.52,15.71-1.01,3.76,3.77,6.13,8.68,6.99,14.19,2.52,16.13,11.24,28.72,20.78,41.04,5.25,6.77,10.58,13.49,16.25,19.9,11.12,12.56,25.38,20.81,39.93,28.72,9.8,5.32,20.12,8.04,30.59,10.68,3.53.89,35.23,6.77,48.69,6.6-40.57-20.15-55.66-42.41-62.55-55.32-2.69-5.05-4.28-9-4.83-13.17-.6-4.51,2.21-8.92,6.65-9.91,3.58-.8,5.24,1.46,8.14,7.47,5.68,11.75,8.67,17.97,15.13,29.31,5.59,9.81,17.88,21.59,27.52,26.53,16.12,8.27,33.11,14.54,51.89,12.41,1.96-.22,4.19-.11,5.8-1.02,16-9,33.72-12.1,51.51-14.02,7.7-.83,15.84,1.09,23.6,2.68,5.9,1.21,10.66,1.26,16.43-1.82,16.83-9,32.61-19.5,48.25-30.32,4.43-3.07,9.5-5.21,14.86-6.85-17.79,18.07-38.5,32.09-59.84,44.67,9.06,9.21,18.08,18.47,27.21,27.62,3.7,3.7,5.84,7.87,6.02,13.23.16,4.64,1.19,9.23,1.49,13.87,1.93,29.01-17.99,51.35-39.95,61.25-12.88,5.8-27.69,5.15-40.09.14-10.12-4.09-20.14-11.12-27.33-20.53-.99-1.29-2.22-2.4-3.63-3.9-6.58,5.52-11.95,11.06-13.83,19.95-3.52,16.62-3.11,32.9.56,49.41,1.5,6.74,26.19,39.54,33.15,44.91,26.25,20.23,57.01,29.11,89.05,34.37,31.51,5.18,62.12-.02,92.48-8.5,17.46-4.87,33.71-11.86,47.96-23.24,3.37-2.69,7.37-4.59,10.7-7.32,3.26-2.67,6.34-5.69,8.95-8.99,2.66-3.37,4.4-7.46,6.99-10.9,15.66-20.8,19.3-44.51,18.54-69.85-.97-32.24-16.3-57.99-36.07-81.33-18.06-21.31-38.28-40.78-56.89-61.64-16.82-18.84-33.21-38.11-48.9-57.89-9.57-12.06-17.09-25.73-26.21-38.18-5.47-7.47-11.44-15-18.68-20.57-5.13-3.95-12.63-5.91-19.29-6.6-19.18-1.99-53.87,5.9-92.66-14.21-35.61-18.46-58.14-64.8-62.5-79.4-6.08-20.39-4.57-41.55-3.9-62.5.1-3.23,1.2-6.57,2.48-9.59,8.57-20.26,21.31-37.51,38.16-51.65,11.76-9.87,25.76-11.61,40.4-10.35,12.28,1.05,22.81,6.28,32.68,13.49,11.63,8.51,17.21,19.91,18.06,33.98,1.55,25.69-12.02,48.35-35.61,59.41-15.23,7.14-30.91,10-47.29,4.38-3.94-1.35-8.21-2.82-9.19-7.54,10.87-4.88,21.41-9.39,31.75-14.31,14.02-6.68,19.61-25.6,11.91-38.88-2.76-4.75-6.27-7.16-12.03-7.15-12.67.02-23.69,4.59-32.48,13.03-24.07,23.11-31.61,65.56-15.62,95.15,10.08,18.66,23.33,35.58,42.4,46.57,21.09,12.15,43.58,19.33,68.2,18.88,9.33-.17,18.66-.18,27.99-.16,6.72,0,11.18-2.95,13.65-9.3,2.76-7.11,11.13-57.42,22.01-77.31,7.23-13.22,16.5-31.27,27.58-41.56,9.74-9.05,19.03-18.68,29.45-26.86,21.11-16.57,46.55-23.31,71.93-30.31,26.33-7.26,53.01-9.2,80.02-7.71,21.08,1.17,40.98,7.48,60.55,15.16,16.29,6.39,31.4,14.56,43.98,26.77,16.72,16.23,30.4,34.69,35.21,57.94,4.25,20.53,1.14,39.66-11.12,57.93-13.2,19.67-31.56,30.02-53.4,34.9-13.65,3.05-28.37,3.09-41.54-1.51-16.08-5.61-31.56-13.46-43.96-26.47,15.88,3.31,30.7-.68,45.35-5.18,24.48-7.51,48.54-36.79,49.87-62.19,1.36-25.83-10.83-45.53-31.93-59.43-17.61-11.61-37.61-16.13-58.62-16.85-33.33-1.14-64.03,6.03-90.4,27.52-31.31,25.53-42.04,57.75-31.74,96.97,4.38,16.67,11.91,31.77,22.35,45.29,8.32,10.78,17.45,20.95,26.39,31.24,13.22,15.22,26.56,30.35,39.91,45.45,2.86,3.23,5.82,6.36,8.94,9.34,25.76,24.58,48.37,51.7,66.33,82.48,3.82,6.56,5.87,14.15,9.7,20.7,13.82,23.62,13.15,49.35,12.54,75.39-.33,14.11-5.88,26.17-10.36,38.98-6.7,19.14-16.42,36.27-29.13,51.84-3.56,4.36-7.43,8.58-11.72,12.2-39.4,33.24-84.44,55.24-135.14,64.31-29.86,5.34-60.21,5.15-90.6,3.42-27.62-1.58-54.47-6.78-78.93-18.93-30.66-15.22-80.55-57.67-86.92-65.64-10.88-13.63-20.54-28.05-23.59-47.93ZM2582.28,1036.08c-2.29-1.95-3.27-2.72-4.18-3.57-11.38-10.63-26.52-12.77-40.52-16.26-11.34-2.83-24.31-3.94-35.56-1.4-29.32,6.62-49.55,24.55-57.35,54.59-2.89,11.14,6.35,26.31,17.95,27.69,12.49,1.49,25.18,1.77,37.77,1.62,5.08-.06,11.02-1.44,15.04-4.33,12.82-9.24,26.28-17.85,36.69-30.01,2.42-2.83,4.9-5.6,7.56-8.2,5.36-5.25,14.37-13.77,22.59-20.12Z"/>
      <path class="cls-2" d="M2399.75,266.76c1.4-.44.87-2.54-.57-2.26-8.66,1.67-21.5,4.54-30.41,5.32-2.23.2-4.77.4-7.8.22-.92-.05-1.66-.79-1.72-1.7-.44-6.37-.84-12.23-1.21-17.72-.06-.84.5-1.59,1.32-1.79,13.86-3.41,27.32-6.02,40.25-10.28,12.33-4.06,24.86-8.5,34.9-17.01.61-.52.78-1.39.43-2.11h0c-.24-.49-.69-.84-1.22-.95-.72-.15-1.46-.33-1.91-.05-18.85,11.72-40.03,17.5-61.16,22.82-17.49,4.41-20.44,1.73-22.92-17.88-.1-.79.34-1.55,1.07-1.86,25.09-10.75,47.92-24.96,65.6-46.07,1.29-1.54-.6-3.67-2.31-2.61-4.55,2.82-8.67,6.23-12.46,10.11-13.72,14-29.95,24.16-48.07,31.42-7.27,2.91-7.43,2.83-11.87-4.07-7.78-12.1-7.73-11.97,5.63-17.65,5.53-2.35,10.8-5.3,16.16-8.02.51-.26.77-.83.64-1.38h0c-.14-.57-.65-.96-1.23-.94-2.05.08-4.2-.07-5.94.7-8.1,3.58-16.34,6.97-24.05,11.33-2.41,1.36-10.52-6.98-8.02-11.42,3.76-6.66,5.03-8.52,9.41-14.79,5.53-7.9,40.26-48.43,74.26-54.82,29.38-5.52,105.72,4.59,99.48,68.13-2.65,27.01-11.61,47.23-28.33,67.81-4.8,5.9-10.66,11.78-16.96,16.48-2.7,2.01-6.32,2.79-9.84,3.65-1.45.35-1.83,2.25-.61,3.13,3.31,2.39,10.02,8.53,13.16,11.9,42.19,45.29,44.57,80.08,45.07,88.64,5.64,95.62-72.94,96.78-99.52,64.71-16.42-19.82-61.64-70.54-68.17-76.2-6.14-5.32-10.03-6.6-6.72-13.84.42-.93,3.29-4.94,6.97-3.1,5.85,2.93,8.22,6.76,15.36,8.3,1.75.38,2.83-1.84,1.5-3.05-6.22-5.68-11.18-7.5-16.28-15.02-1.84-2.71,2.75-6.97,6.1-5.71,15.63,5.89,34.22,14.76,47.3,25.39,1.88,1.52,3.86,2.91,6,4.1,1.68.94,3.45-1.07,2.28-2.6-6.13-8.08-14.36-13.75-23.28-18.36-10.17-5.26-18.31-8.14-28.63-13.29-4.45-2.23,3-16.06,8.42-15.1,4.32.77,24.2,4.59,34.61,8.05,2.49.82,5.05,1.43,8.06,2.12,1.87.43,3-2.04,1.44-3.15-9.59-6.77-23.43-10.26-42.87-11.42-.86-.05-1.57-.72-1.66-1.58-.97-8.77-.49-12.62.61-21.72.49-4.07,5.78-5.98,8.52-6.58,4.85-1.07,21.06-5.01,31.22-8.21Z"/>
      <path class="cls-1" d="M2637.32,328.25c9.76-3.77,19.59-7.39,29.27-11.36,14.39-5.89,28.77-11.81,42.94-18.18,4.1-1.84,7.45-5.32,11.18-8.01,19.64-14.14,35.61-31.86,50.1-51.06,9.02-11.95,18.2-23.79,27.32-35.67,15.12-19.68,34.67-33.27,58.81-38.54,11.45-2.5,23.91-2.2,35.67-.95,12.1,1.29,26.61,18.8,27.73,30.76.18,1.94-.1,4.02-.65,5.9-4.13,14.27-10.08,27.12-22.69,36.47-22.51,16.67-45.27,32.6-72.76,40.14-.95.26-116.95,42.07-121.29,43.62-12.77,4.55-25.32,9.75-38.2,13.96-20.15,6.6-40.51,12.54-60.74,18.88-18.84,5.91-35.46,16.24-51.92,27.55,3.12-.72,6.25-1.41,9.36-2.18,3.53-.88,7.07-1.72,10.55-2.79,9.19-2.81,18.41-5.55,27.51-8.64,18.73-6.36,38.24-8.14,57.7-10.25,9.56-1.04,19.15-1.83,28.75-2.47,9.95-.67,19.92-1.16,29.88-1.51,30.01-1.06,59.81,1.29,89.52,5.43,12.48,1.74,25.23,1.95,37.55,4.39,26.42,5.24,51.46,15.11,76,25.9,9.12,4.01,31.64,14.51,32.24,14.79,36.14,16.82,73.09,31.43,111.57,42.12,5.92,1.64,11.97,4.53,16.7,8.4,7.16,5.85,5.92,13.11-2.85,15.78-7.12,2.16-15.16,3.14-22.52,2.28-11.85-1.39-23.17-5.36-33.73-11.46-29.63-17.12-59.49-33.82-89.15-50.89-6.75-3.88-49.93-22.53-63.94-27.35-6.87-2.36-14.01-4.09-21.14-5.49-15.94-3.12-31.89-6.37-47.97-8.59-15.24-2.11-30.66-2.99-46-4.42-.24.78-.48,1.55-.72,2.33,10.76,6.87,68.49,49.84,80.37,60.64,4.51,4.11,5.46,9.63,4.19,15.63-4.53,2.22-8.63.92-12.4-1.31-5.13-3.04-10.74-5.72-14.9-9.82-9.9-9.74-20.6-18.56-30.1-28.84-13.41-14.52-30.29-24.78-49.35-30.83-2.78-.88-5.93-.8-8.91-.81-25.32-.05-50.65-.16-75.97.1-5.88.06-11.76,1.4-17.61,2.27-16.38,2.45-32.77,4.9-49.13,7.51-4.03.64-7.96,1.93-12.07,4.79,8.46,2.4,16.86,5.11,25.41,7.1,8.71,2.03,37.51,11.84,34.16,16.1-2.81,3.57-64.79-13-96.47-12.18-4.95.13-9.3-3.52-9.8-8.45-.57-5.65,1.71-8.03,8.76-12.12,14.33-8.32,28.81-16.41,43.51-24.07,9.83-5.12,16.12-13.31,23.3-21.7,5.41-6.32,41.41-64.77,43.5-101.21.59-10.27,2.43-20.51,2.49-30.78.1-19.02,6.16-51.45,36.99-52.54,21.16-.75,37.44,9.95,38.95,31.16,1.51,21.13-.78,40.93-12.02,60.38-13.58,23.51-28.45,45.69-46.67,65.67-5.78,6.34-12.24,12.07-18.26,18.2-1.27,1.29-1.99,3.11-2.96,4.69.31.5.61,1.01.92,1.51ZM2730.52,292.77c-1.59,2.12.16,5.12,2.78,4.73,3.13-.46,6.69-1.25,8.56-2.1,13.56-6.19,26.9-12.89,40.4-19.22,21.31-10,42.73-19.59,62.51-32.72,9.67-6.42,16.51-13.99,21.32-24.11,5.06-10.64,1.64-19.29-9.79-20.99-7.37-1.09-15.41-.68-22.65,1.08-14.75,3.58-25.99,13.34-35.41,24.71-20.23,24.43-42.09,47.15-66.57,67.34-.35.29-.74.74-1.14,1.28ZM2600.58,337.86c31.38-14.5,81.21-82.26,87.92-119.03,1.98-21.15-6.15-29.48-23.77,3.23-1.07,2-10.41,25.76-11.61,28.01-1.81,3.4-3.5,6.85-5.07,10.36-9.75,21.72-39.77,63.13-48.98,75.6-.76,1.02.35,2.36,1.51,1.83Z"/>
      <path class="cls-1" d="M1619.63,369.7c-19.75,3.72-40.27,5.95-58.74,13.19-25.35,9.93-51.87,11.55-77.89,16.73l-7.26,1.41c-.65.13-.91-.81-.28-1.04,23.07-8.57,43.82-16.4,64.65-23.98,8.38-3.05,17-5.45,25.4-8.45,15.64-5.59,32.07-7.12,48.28-9.66,48.69-7.65,97.74-3.04,146.62-3.55,10.15-.11,20.3,3.36,30.52,4.19,24.13,1.96,45.94,12.6,69.19,17.8,6.22,1.39,12.2,2.08,20.29.17.46-.11.56-.74.16-.99-2.96-1.86-4.73-3.01-6.54-4.09-29.43-17.55-62.35-25.75-94.74-35.41-9.52-2.84-18.93-6.02-28.45-8.84-16.19-4.8-32.51-9.18-48.63-14.21-70.48-22-145.32-56.33-160.18-72.66-7.93-8.72-15.72-17.23-19.42-28.22-3.47-10.31-6.56-21.43-.14-31.91,4.98-8.11,13.77-10.38,22.29-12.15,36.44-7.61,64.7,6.51,87.63,33.86,18.44,22,34.72,45.74,55.18,66.13,15.07,15.02,30.9,28.65,49.78,38.81,8.94,4.81,17.33,9.93,27.53,12.23,14.49,3.26,28.63,8.11,42.94,12.21,1.3.37,2.69.45,5.5.79.52.06.81-.57.44-.93-13.02-12.42-24.66-23.43-36.18-34.57-6.44-6.22-12.62-12.71-18.98-19.01-4.62-4.58-25.93-24.04-26.26-24.51-12.97-18.63-25.75-37.38-27.2-61.08-.28-4.61-.17-9.39.69-13.91,4.49-23.6,15.05-26.08,33.02-27.11,13.25-.76,24.45,3.88,33.99,13.04,11.65,11.18,22.01,23.14,26.51,39.15,5.74,20.44,10.91,41.08,17.59,61.21,4.15,12.51,10.25,24.43,16.21,36.25,6.28,12.46,13.74,24.31,20.1,36.73,5.75,11.23,16.28,16.33,26.4,21.92,16.56,9.13,33.38,17.79,50.07,26.7,1.02.55,1.86,1.44,3.45,2.78.25.21.26.59.02.82-7.27,6.76-14.3,12.71-24.65,11.84-9.22-.77-18.36-2.45-27.58-3.18-6.61-.53-13.42-1.01-19.92-.02-10.78,1.63-21.34,4.68-32.08,6.7-8.66,1.63-16.43,5.03-23.66,9.93-1.2.81-2.52,1.43-4.11,2.23-.47.24-.97-.26-.73-.73,5.54-10.86,57.14-25.67,60.09-28.15.33-.27-35.06-10.56-46.4-14.88-5.73-2.18-11.93-3.69-18.05-4.47-29.3-3.73-58.7-6.48-88.25-3.56-6.52.64-13.29,1.88-19.25,4.46-15.49,6.72-30.91,13.78-45.73,21.84-8.05,4.38-14.91,10.98-22.15,16.79-16.33,13.08-82.86,50.26-84.81,45.03-2.36-6.32,51.6-50.18,70.74-61.39,11.04-6.46,22.27-12.59,33.46-18.78,2.59-1.43,1.46-5.39-1.49-5.24-6.38.31-12.77.6-18.99,1.77ZM1835.55,331.04l1.09-1.23c.13-.15.17-.36.1-.55-.4-1.08-.73-2.22-1.29-3.2-13.94-24.24-23.75-50.21-33.17-76.46-5.56-15.5-13.25-30.29-20.55-45.11-3.73-7.57-7.15-8.6-14.5-6.78-13.58,3.36-26.9,19.54-24.91,33.33,2.72,18.89,28.4,41.25,40.25,55.33,8.7,10.34,19.48,19.01,29.81,27.88,7.09,6.09,14.94,11.29,22.47,16.87.22.17.54.13.72-.08ZM1700.22,297.25c.54.21.99-.45.6-.87-4.24-4.54-8-8.55-11.75-12.59-16.26-17.51-32.55-35-48.75-52.57-4.72-5.12-8.84-10.81-13.81-15.66-5.88-5.75-12.1-11.24-18.74-16.04-2.11-1.52-6.84-1.76-9.05-.42-17.49,10.62-22.88,26.22-8.76,42.89,3.96,4.68,9.53,8.17,14.79,11.55,23.53,15.1,49.06,26.08,75.16,35.86,6.62,2.48,13.19,5.09,20.31,7.86Z"/>
      <path class="cls-2" d="M2255.32,155.98c3.93-13.93,7.67-27.18,11.38-40.32.34-1.21-.6-2.39-1.86-2.36-3.34.07-4.18,1.64-5.98,6.8-3.81,10.93-8.07,21.7-12.34,32.47-.43,1.09-1.32,2-2.23,2.92-.76.77-2.04.74-2.73-.1-2.88-3.45-2.97-6.01-2.67-26.98.14-9.95.36-20.01,1.95-29.78,1.3-7.96,3.82-15.71,6.38-24.51.59-2.02-2.21-3.38-3.31-1.58,0,.01-.01.02-.02.04-6.75,11.28-11.21,23.23-11.31,36.66-.12,15.36-.71,30.72-1.13,46.5-.02.92-.72,1.68-1.63,1.8-2.33.29-4.13.51-5.83.73-.75.09-1.49-.28-1.85-.95-.45-.8-.81-1.41-.84-2.03-.52-11.38-7.1-55.89-19.03-70.85-1.67-2.09-2.88-5.08-6.07-5.74-1.37-.28-2.53,1.08-2.09,2.41,4.24,12.71,11.84,26.31,12.87,30.21,3.54,13.39,10.02,32.6,9.31,47.31-.04.79-.59,1.48-1.35,1.69-2.18.62-4.41,1.25-7.03,2-.96.27-1.97-.26-2.28-1.21-3.93-11.94-7.66-23.29-11.31-34.36-.3-.9-1.23-1.44-2.15-1.24-3.21.7-3.16,2.47-2.49,4.76,2.7,9.25,5.32,18.51,7.91,27.79.4,1.42.62,2.88.91,4.55.15.89-.36,1.77-1.21,2.07-7.16,2.55-14.05,5.02-21.98,7.85-.77.27-1.63.02-2.12-.63-2.7-3.6-6.06-8.08-9.4-12.57-3.57-4.81-7.37-9.47-10.61-14.49-6.84-10.58-14.83-20.73-19.65-32.2-5.33-12.69-6.07-24.67-6.05-40.83.07-60.74,102.46-111.83,170.97-27.22,3.34,4.13,23.61,30.17,6.52,70.25-4.66,10.94-30.22,42.61-37.79,46.39-4.28,2.14-7.52-.46-11.18-3.27-.6-.46-.86-1.25-.66-1.99Z"/>
      <path class="cls-1" d="M179.12,601.3c-.62-1.4-2.65-1.24-3.05.24-3.22,12.05-6.13,23.17-9.3,34.21-1.18,4.12-3.26,7.98-4.87,11.97-2.39,5.9-6.11,10.18-13.26,11.37-.72.12-1.44-.23-1.76-.89-5.93-12.34-11.99-24.95-18.37-38.23-.46-.96-1.71-1.23-2.51-.54-13.89,12.05-22.15,25.92-22.57,42.95-.3,12.12,2.72,24.33,4.22,36.5.65,5.28,1.7,10.58,1.6,15.86-.07,4.17-.97,8.6-2.66,12.41-2.56,5.77-6.67,5.96-10.5.77-1.73-2.34-2.47-5.4-3.87-8.02-2.08-3.91-3.19-8.53-7.2-11.77-.94-.76-2.36-.22-2.59.97-1.2,6.11-2.13,11.89-3.8,17.44-1.39,4.61-3.37,9.36-6.27,13.14-4.27,5.54-7.5,5.42-11.94-.33-3.17-4.12-5.26-9.11-7.57-13.84-.61-1.26-.96-2.64-1.33-4.18-.3-1.27-1.91-1.67-2.78-.69-2.03,2.28-3.84,4.35-5.8,6.25-3.92,3.8-8.1,3.68-10.69-.92-1.87-3.33-3.23-7.46-3.21-11.22.06-8.59,1.12-17.16,1.73-25.75.09-1.33.05-2.67.02-4.32,0-.68-.45-1.29-1.1-1.51-3.49-1.2-6.84-2.35-10.17-3.51-5.5-1.92-10.22-4.85-13.87-9.1-9.79-11.37-6.45-26.39,6.96-33.11,7.56-3.79,15.5-6.47,24.07-7.11,2.59-.19,5.17-.5,8.57-.88,1.26-.14,1.88-1.6,1.11-2.6-1.94-2.51-3.61-4.63-5.18-6.81-8.56-11.92-7.53-18.05,4.21-26.59,9.62-7,19.78-11.98,32.22-10.56,2.03.23,4.17-.43,6.67-1,.93-.21,1.49-1.17,1.18-2.07-2.11-6.19,2.43-9.33,7.47-11.75,12.31-5.9,24.94-10.85,38.95-10.83.62,0,1.24-.09,1.95-.26,1.65-.38,1.66-2.74.02-3.15-9.56-2.38-18.68-2.76-25.1-10.34-.49-.58-.54-1.44-.08-2.05,15.87-20.9,36.64-17.33,57.36-11.85.9.24,1.83-.32,2-1.24.95-5.04,1.29-9.93,3.4-13.86,2.24-4.17,6.39-7.64,10.37-10.49,13.55-9.71,11.56-25.03,1.03-33.93-5.29-4.48-9.77-10.04-17.57-12.32-1.28-.37-2.43.89-1.96,2.14l3.28,8.59c.23.61.1,1.26-.32,1.72-2.68,2.9-5.36,4.34-8.95,1.75-4.1-2.96-6.02-7.01-5.22-12.06,1.9-12.08,11.15-16.56,21.99-10.28,16.04,9.28,27.21,22.75,35.04,39.65,7.8,16.85,8.96,34.46,8.99,52.43.01,7.14-1.53,13.71-6.35,19.43-6.11,7.25-10.25,15.14-9.16,25.4.5,4.68-1.81,9.66-2.93,14.49-1.17,5.05-3.99,8.28-9.56,8.43-5.48.15-8.37-1.9-10.88-7.82-.04-.09-.08-.19-.12-.28ZM196.25,521.73c0-.05.02-.11.02-.16l.29-3.87c-.3-.02-.6-.03-.9-.05-.27,1.19-.53,2.38-.8,3.56-.03.12-.07.24-.13.36-2.6,5.25-5.1,10.54-7.83,15.72-2.46,4.66-4.41,9.94-7.96,13.61-10.42,10.76-21.73,20.55-36.74,24.64-3.2.87-6.39,1.79-9.5,2.92-.08.03-.16.07-.23.12-1.08.76-.6,2.49.68,2.8,1.37.33,2.83.67,4.61,1.1,1.32.32,1.69,2.02.62,2.86-16.83,13.14-34.31,22.03-52.81,28.98-1.69.63-1.24,3.13.56,3.13h4.36c1.37,0,2.12,1.6,1.24,2.65-3.28,3.96-5.96,7.27-8.79,10.44-12.98,14.54-23.83,30.29-28.34,49.64-.23.98-.42,1.97-.6,2.96-.33,1.84,2.19,2.68,3.04,1.02,3.13-6.09,5.27-12.66,10.97-17.18.89-.7,2.21-.24,2.53.85.47,1.61.91,3.15,1.34,4.65.52,1.79,3.18,1.43,3.17-.43,0-.76-.04-1.52-.11-2.28-1.31-14.02,4.64-24.77,13.81-34.92,19.38-21.47,41.95-38.88,66.48-53.79,22.66-13.78,36.69-33.08,41.02-59.31Z"/>
      <path class="cls-2" d="M2159.92,191.37c-6.67-9.76-13.33-19.52-20.07-29.24-.13-.18-1.16.27-2.68.65,1.18,2.64,2.19,5.26,3.49,7.74,3.71,7.07,7.49,14.1,11.33,21.1,1.64,2.98,1.79,5.61-.98,8.01-2.58,2.24-5.11,2.54-8.16.69-6.81-4.15-13.67-8.23-20.66-12.07-12.83-7.04-25.75-13.93-38.68-20.77-1.93-1.02-4.17-1.45-6.7-2.3-1.53,5.55,2.27,6.92,5.27,8.57,14,7.67,28.11,15.13,42.06,22.89,4.04,2.24,7.77,5.08,11.47,7.86,3.91,2.94,4.39,6.7,1.13,10.32-3.7,4.11-7.81,7.85-11.93,11.95-9.26-6.21-17.04-13.06-28.9-14.74,8.98,11.67,25.75,17.6,22.13,35.81-.23,1.15-1.38,1.87-2.52,1.6-9.02-2.13-42.81-25.42-47.76-22.61-6.27,3.57,36.98,26.66,48.24,31.36-.33,3.49-.72,7.72-1.15,12.3-5.98,2.37-42.74,1.83-55.05,1.28-46.66-2.07-59.06-25.5-68.87-44.18-9.38-17.85-35.01-120.86,63.28-126.95,26.02-1.61,56.81,7.12,74.37,22,15.16,12.84,24.97,30.92,36.76,46.89,8.01,10.86,6.8,13.89-5.43,21.82Z"/>
      <path class="cls-2" d="M2156.34,362.99c5.32,5.81,10.74,11.74,16.53,18.08,1.09,1.19,1.16,2.99.17,4.26-5.67,7.28-12.3,15.38-18.22,23.98-6.68,9.72-10.86,18.32-12.64,25.08-.95,3.59,3.88,5.83,5.91,2.72.61-.94,1.15-1.96,1.7-2.95,4.52-8.15,8.62-16.55,13.5-24.47,5.76-9.33,12.16-18.26,18.29-27.36,1.94-2.89,4.06-3.22,6.53-1.86,1.4.76,2.06,2.45,1.52,3.96-3.57,9.93-11.97,17.93-15.3,28.38-1.21,3.8,4.25,6.05,6.07,2.5.23-.45.46-.88.72-1.3,6.27-10.01,12.56-20.02,18.87-30.05,1.03-1.63,3.23-2.03,4.78-.89,3.86,2.85,4.22,6.29,2.48,10.9-5.52,14.6-10.8,29.29-15.97,44.01-1.51,4.28-2.38,8.59-2.36,12.89s6.32,4.32,6.58.13c.14-2.19.36-4.35,1.13-6.38,2.57-6.84,4.39-13.97,6.89-20.83,2.39-6.56,5.08-13.02,7.95-19.38,2.53-5.6,5.37-11.07,8.08-16.5.61-1.21,1.89-1.93,3.24-1.81,6.95.6,13.23,1,19.45,1.87,4.59.64,7.94,3.43,9.1,8.14.63,2.56,1.23,5.21,1.24,7.82.12,20.98,5.27,42.53-3.06,61.78-6.53,15.11-21.8,35.42-34.23,45.84-37.97,31.84-54.42,22.76-63.13,19.84-27.1-9.1-26.87-35.8-36.77-48.39-7.16-9.1-36.19,10.24-58.84-11.23-11.03-10.45-16.45-29.61,76.86-93.67,6.48-4.45,12.18-9.98,18.29-15.35,1.35-1.19,3.41-1.08,4.62.25Z"/>
      <path class="cls-2" d="M2114.81,285.6v20.87c0,.14-.07.28-.18.37-7.76,5.88-16.42,8.33-25.65,10.05-2.49.46-1.96,4.16.56,3.91,3.58-.36,7.64-1.03,12.66-2.01,4.22-.82,8.56-1.09,12.87-1.31,3.43-.18,6.56.57,7.59,5.89.03.18-.04.37-.19.47-11.2,7.88-23.98,14.13-36.94,19.3-6.58,2.63-17.26,5.76-25.92,8.65-2.34.78-1.28,4.3,1.1,3.64,14.75-4.05,35.86-10.83,42.65-13.71,3.94-1.67,7.76-3.63,11.51-5.69,6.55-3.6,12.41-3.47,17.88,2.94.15.18.14.46-.02.62-6.62,6.59-13.31,13.26-20,19.93-1.48,1.47.33,3.86,2.15,2.84,8.2-4.62,14.22-12.27,21.43-17.8.18-.14.44-.12.6.04,4.05,3.94,7.98,7.77,12.39,12.06.2.19.18.52-.04.69-15.81,12.04-29.07,26.84-46.65,36.53-11.03,6.08-33.57,19.65-44.8,22.94-7.93,2.32-37.48,5.49-50.39-.55-77.36-36.22-35.23-102-24.15-115.02,9.23-10.85,21.88-17.58,36.45-19.49,5.27-.69,10.61-1.04,15.92-1.11,9.99-.14,19.98,0,29.97.07,16.08.11,32.29-1.23,48.89,4.47.18.06.31.24.31.44Z"/>
      <path class="cls-2" d="M2324.97,425.71c-2.31-17.94-16.61-29.71-24.28-44.22-.42-.79-.24-1.76.4-2.38,7.07-6.78,14.33-13.74,22.27-21.35.69-.66,1.75-.76,2.55-.22,2.44,1.65,5.24,3.36,7.52,5.59,12.13,11.89,24.58,23.53,35.91,36.17,10.19,11.37,19.07,23.92,28.51,35.97,5.88,7.5,7.19,20.51,6.61,25.73-1.16,10.44-13.16,88.84-98.74,52.59-9.75-4.13-16.96-12.49-24.49-20.33-9.46-9.84-11.63-21.53-12.39-33.45-1.12-17.58-.96-45.61-.96-63.26,0-6.29,24.7-11.99,27.87-10.06,2.71,1.65,17.99,24.04,22.94,36.48.45,1.12,1.85,3.32,2.81,4.36.62.66,1.6.84,2.41.42h0c.75-.38,1.2-1.19,1.09-2.03Z"/>
      <path class="cls-1" d="M528.75,1352.93c-.9-.08-1.71.59-1.78,1.5-.16,1.89-.32,2.95-.18,3.96.96,6.74.43,12.7-7.24,15.34-.3.1-.54.39-.8.59-10.73,8.69-11.18,15.25-.81,24.33,4.69,4.1,10.32,7.19,15.73,10.38,2.6,1.54,5.57,2.65,8.34-.26.55-.58.61-1.46.14-2.1-1.25-1.68-2.56-3.44-3.87-5.2-.5-.68-.42-1.65.23-2.2,3.14-2.66,6.44-2.42,9.6.23,3.26,2.74,3.04,6.49,1.7,10.11-1.43,3.87-3.5,7.97-8.25,7.28-5.82-.84-12.1-1.81-17.06-4.67-22.06-12.71-34.43-32.58-39.42-57.15-1.51-7.43-.04-14.52,5.74-20.22,1.43-1.41,2.54-3.13,3.12-4.03.23-.36.31-.81.22-1.23-1.75-8.04-4.29-14.55-4.09-20.98.32-10.14,5.21-12.93,15.48-10.92.87.17,1.73.44,2.53.71.93.31,1.92-.26,2.12-1.22,2.82-13.63,5.47-26.9,8.47-40.1.25-1.11,1.64-1.97,3.22-3.09,2.22-1.56,5.39-1.05,7.03,1.11,7.09,9.37,9.01,16.7,15.97,26.06.55.74,1.61.88,2.34.31,8.25-6.49,11.16-15.11,13.02-23.99,2.4-11.46,2.15-22.15-5.43-32.83-4.66-6.57-5.34-16.13-7.11-24.5-.47-2.22.39-4.72,1.25-8.28.31-1.29,1.95-1.69,2.82-.68,5.38,6.23,9.79,11.33,14.15,16.38.99,1.14,2.87.44,2.87-1.07-.01-4.54-.11-9.09.05-13.62.11-2.95.13-6.1,1.14-8.8,2.58-6.89,7.72-8.28,13.03-3.17,3.35,3.22,5.97,7.19,9.01,11.29.73.98,2.24.85,2.78-.25,1.14-2.35,2.16-4.53,3.5-6.49,2.12-3.1,5.18-3.43,7.37-.3,2.04,2.91,3.94,6.27,4.67,9.7,1.43,6.74,2.12,13.63,3.18,21.33.1.71.65,1.28,1.35,1.39,2.53.4,5.28.76,7.95,1.43,3.47.88,7.36,1.41,10.18,3.37,11.46,7.92,15.37,19.9.16,29.12-4.17,2.53-9,3.99-13.59,5.78-2.56,1-5.19,1.83-8.32,2.86-1.19.39-1.51,1.92-.59,2.76,2.79,2.53,5.01,4.43,6.92,6.61,5.71,6.52,5.72,11.38-.4,17.32-8.27,8.01-17.31,14.7-30.2,14.34-1.13-.03-1.95,1.05-1.61,2.12l1.29,4c.18.55.03,1.19-.39,1.62-8.42,8.49-19.29,13.44-31.15,19.31-1.58.78-.97,3.17.79,3.09,6.56-.29,12.57-1.27,16.57,4.54.27.39.35.9.21,1.35-3.31,10.85-20,18.78-30.17,17.09-4.35-.72-8.78-.95-13.76-1.39ZM577.71,1225.47h-.01c-.79.26-1.25,1.06-1.1,1.88.62,3.37.93,6.88,2.35,9.86,4.15,8.67,1.81,16.75-2.9,23.61-8.99,13.09-17.48,26.64-30.41,36.7-7.82,6.08-14.67,13.45-21.76,20.43-13.79,13.58-19.27,30.63-20.13,49.49-.09,2.01-.34,4.17.74,5.98.62,1.05,2.16,1.02,2.79-.03,3.67-6.11,4.21-6.8,4.4-15.28.28-12.95,5.68-23.2,15.15-31.24,4.71-4,10.68-6.51,16.06-9.72,2.55-1.52,5.96-2.1,7.7-5.28.63-1.15-.3-2.54-1.6-2.41l-2.92.3c-1.59.17-2.44-1.82-1.22-2.86,14.12-12.09,25.69-25.73,43.98-29.97,1.29-.3,2.32-1.76,3.39-3.01.45-.52.53-1.26.19-1.86l-.02-.04c-.37-.66-1.13-.98-1.86-.78-3.31.92-6.65,1.84-10.24,2.83-1.36.38-2.52-1.03-1.9-2.3,3.42-6.96,6.76-13.31,9.39-19.94,3.16-7.98,5.62-16.26,7.97-24.53,1.06-3.73,1.03-7.55-1.13-11.61-.64-1.2-2.4-1.14-2.94.11-2.63,6.02-.27,13.25-4.24,18.32-.68.87-2.02.78-2.63-.13-1.81-2.71-3.53-5.3-5.25-7.88-.4-.6-1.16-.87-1.85-.65Z"/>
      <path class="cls-2" d="M229.47,1451.53h0c-1.22,0-2.39-.69-2.83-1.83-.06-.15-.09-.29-.1-.44-.23-6.65-.85-15.38-1.71-21.95-.83-6.36-16-35.74-50.59-43.45-12.5-2.79-24.98-.89-37.53,1.48-39.49,7.46-55.61,39.83-56.66,47.74-2.18,16.29,1.36,31.76,7.04,46.89.35.93,12.25,19.58,19.99,26.19,2.94,2.51,5.9,5.15,9.27,6.96,7.87,4.21,15.79,8.46,24.06,11.76,9.85,3.92,19.88,7.93,30.21,9.98,19.88,3.95,97.37,6.74,115.87,6.5,5.37-.07,10.72-.71,15.96-1.91,16.94-3.86,98.62-22.99,122.41-29.09,11.85-3.04,96.03-31.02,106.89-34.12,6.94-1.98,312.53-115.51,323.74-118.56,9.61-2.61,120.48-32.04,129.58-33.9,124.79-25.57,258.43-36.92,273.35-38.08,51.19-3.97,102.48-4.69,153.79-4.48,31.65.12,75.99,1.6,107.58,3.06,21.48.99,134.7,18.37,171.1,41.42,88.46,56.03,84.91,100.1,85.8,109.34,3.69,1.23,7.44,2.51,11.2,3.71,24,7.7,346.36,113.3,364.67,117.27,170.71,37.03,281.03,3.87,333.09-41.18,15.94-13.8,31.91-34.57,35.04-56.11,11.92-82.13-53.94-112.33-71.99-119.32-15.1-5.85-40.91-15.52-67.49-6.23-20.8,7.27-39.86,21.09-44.32,31.99-14.26,34.85,19.9,57.19,25.16,60.63,13.82,9.04,28.07,8.91,42.55,2.33,8.16-3.71,17.66-8.24,24.61-13.92,28.25-23.1,1.87-36.97,4.97-39.87,3.5-3.28,29.34,15.9,11.42,42.32-7.31,10.77-31.35,36.26-71.61,33.42-18.65-1.32-72.59-31.47-65.81-78.71,2.17-15.09,18.06-57.55,67.89-67.92,18.36-3.82,45.65-7.95,82.51,6.5,54.1,21.22,87.9,64.38,93.04,79.5,20.04,59.02-2.22,105.98-28.74,131.26-60.17,57.35-145.8,83.17-248.6,78.01-24.23-1.22-48.64-2.5-72.47-7.14-85.89-16.73-319.73-93.54-352.33-104.9-20.66-7.2-41.99-12.56-63.14-18.28-7.08-1.92-7.82.97-10.47,7.83-3.95,10.24-21.31,50.13-27.17,56.95-6.56,7.62-50.09,47.14-130.2,41.01-43.6-3.33-108.35-50.64-77.88-116.45,11.44-24.69,25.42-9.5,18.4-.69-27.69,34.74-6.58,75.48,19.26,89.6,39.61,21.64,73.87,13.59,91.81,10.73,69.32-11.04,79.64-52.59,88.66-75.34,4.35-10.98-1.76-23.33-13.06-26.78-21.38-6.52-58.84-17.8-78.08-23.38-23.6-6.84-47.07-14.3-70.72-20.72-93.74-25.46-159.55-30.88-253.7-38.99-88.48-7.62-204.48,1.13-227.55,3.98-29.63,3.67-59.11,8.94-88.43,14.68-21.14,4.14-41.89,10.24-62.84,15.36-3.77.92-6.66-7.19-2.18-9.21,19.17-8.68,137.7-31.26,143.28-32.06,125.16-17.93,173.07-11.16,203.35-10.58,31.59.61,189.68,8.13,280.26,33.29,126.58,35.16,164.05,42.52,166.03,42.77.53-5.34-.54-28.04-45.54-63.92-44.15-35.2-97.27-46.59-169.35-57.8-82.15-12.78-129.53-6.07-179.15-4.27-233.44,8.47-382.67,48.77-396,51.44-13.66,2.73-27.2,6.18-40.68,9.71-22.47,5.88-118.25,32.96-143.16,41.99-21.13,7.65-284.22,102.95-299.17,107.36-10.19,3.01-172.16,41.73-185.67,43.19-22.79,2.47-99.69-1.27-115.13-3.47-20.25-2.88-40.16-8.55-57.69-18.61-11.91-6.83-33.07-18.44-51.11-50.82-.93-1.68-1.64-3.51-2.35-5.32-.72-1.83-13.42-43.08,6.01-71.92,10.21-15.15,24.72-22.62,40.62-28.69,25.79-9.86,51.94-10.76,78.13-1.47,4.1,1.45,26.6,11.33,32.79,24.62,5.04,10.82,8.47,31.03,7.74,43.49-.18,3.16-2.78,5.63-5.94,5.63Z"/>
      <path class="cls-2" d="M2005.26,1478.38c31.43,4.53,96.22,4.68,154.72-27.26,19.85-10.83,39.82-26.51,26.2-62.16-6.28-16.44-34.5-40.35-71.41-14.51-27.1,18.97,14.49,42.6,29.42,35.23,7.84-3.87,5.24,27.39-42,3.81-18.13-9.05-24.58-54.13,19.2-67.82s70.29-.02,84.02,14.77c25.87,27.85,18.22,59.6,4.74,73.26-25.44,25.76-61.75,43.07-85.49,51.64-35.57,12.83-93.63,11.29-121.75,5.08-31.24-6.9-65.71-17.27-85.83-26.05-2.27-.99-1.13-4.41,1.28-3.83,22.58,5.41,60.42,14.04,86.91,17.86Z"/>
      <path class="cls-1" d="M4476.76,637.25c-.46,33.97-17.08,60.77-52.52,63.71-30.45,2.52-65.65-17.06-61.62-60.87,2.82-30.62,23.69-51.48,54.34-55.35,12.5-1.58,23.43,2.35,33.59,9.52,16.8,11.86,27.17,27.02,26.21,42.99Z"/>
      <path class="cls-1" d="M2940.99,382.03c.22-.88,1.06-1.45,1.96-1.32,4.66.64,9.36,1.07,13.91,2.15,30.67,7.3,61.66,9.94,93.05,6.67,15.32-1.59,29.52-7.09,43.77-12.73,10.4-4.12,21.3-7.37,32.27-9.5,6.61-1.28,14.35-1.77,20.67.86,28.48,11.88,11,37.3,3.59,41.44-12.27,6.85-25.03,11.41-39.52,12.09-33.01,1.56-64.92-3.89-96.44-12.72-17.55-4.92-35.11-9.83-52.43-15.47-6.93-2.26-13.32-6.16-19.91-9.47-.74-.37-1.12-1.19-.93-2,0,0,0-.02,0-.03Z"/>
      <path class="cls-1" d="M1408.11,390.45c.07,0,.15,0,.22,0,21.87-1.4,43.55-4.12,65.06-8.39,1.93-.38,3.92-.49,6.01-.49,3.87.02,5.05,5.26,1.57,6.95-4.51,2.2-9.11,3.5-13.52,4.95-12.16,3.99-24.71,6.79-37.14,9.9-9.14,2.29-18.33,4.44-27.56,6.33-13.81,2.82-27.76,5.03-41.52,8.08-22.91,5.07-45.58,2.21-67.94-2.49-8.84-1.86-16.93-7.4-22.55-15.29-3.02-4.24-3.74-8.98-3.4-14.11.39-5.79,6.33-10.96,10.65-12.92,10.26-4.65,29.12-7.75,44.02-.75,22.15,10.42,44.55,17.98,69.09,18.39,5.65-.06,11.33-.11,17.01-.16Z"/>
      <path class="cls-1" d="M5328.23,915.2c-13.61.71-27.24.29-41.42.08-4.1-.06-4.78-5.89-.81-6.91.04-.01.08-.02.12-.03,29.14-7.48,52.83-22.9,69.43-48.38,1.97-3.03,10.6-15.7,12.6-24.6.11-.5,1.21-3.44,2.03-3.73,2.48-.88,5,1.26,4.61,3.86-1.53,10.01-6.74,17.38-11.58,25.34-6.07,9.98-13.58,18.09-22.56,24.91-8.52,6.46-5.34,19.53,4.97,18.06,38.68-5.49,68.73-26.3,95.26-53.8,13.81-14.31,23.51-30.35,27.7-49.73,1.35-6.21,5.18-10.38,9.91-13.77,1.15-.83,2.71-.86,3.9-.09,8.87,5.67,12.02,12.67,8.5,22.8-4.44,12.8-9.52,25.61-16.18,37.36-11.76,20.74-28.74,36.57-51.18,45.47-10.42,4.13-38.94,20.24-95.3,23.17Z"/>
      <path class="cls-2" d="M2199.46,276.63c-1.34-15.58,9.76-31.27,25.64-35.79,15-4.28,27.38-1.75,39.43,6.63,9.31,6.48,14.35,23.38,10.03,33.73-2.16,5.19-4.77,10.23-7.56,15.11-12.98,22.72-34.38,21.1-53.64,11.66-7.53-3.69-11.29-11.95-12.85-20.44-.66-3.57-.72-7.26-1.05-10.9Z"/>
      <path class="cls-2" d="M2319.96,137.1c-3.57,3.34-7.79,10.92-17.61,28.76-.56,1.02-1.81,1.44-2.87.96-9.28-4.24-9.98-6.4-6.38-16.8,3.3-9.54,5.62-19.93,11.28-28.03,25.9-37.1,72.93-40.19,48.35,14.58-9.05,20.18-36.59,43.08-39.23,42.26-1.5-.47-6.81-4.5-6.39-6.97,1.85-10.69,7.71-22.54,15.05-30.61.3-.33.6-.65.9-.98,1.91-2.07-1.04-5.1-3.11-3.17Z"/>
      <path class="cls-1" d="M1525.61,335.57c-1.04-1.07-.73-2.82.6-3.49,6.06-3.06,11.72-4.34,17.94-4.94,14.79-1.42,29.45-4.21,44.16-6.45.98-.15,1.96-.46,2.95-.47,24.24-.27,48.49-.62,72.73-.69,4.33-.01,8.62.77,12.71,4.18,1.31,1.09.9,3.21-.72,3.75-2.19.73-4.15,1.38-6.15,1.82-23.83,5.24-47.64,10.6-71.55,15.49-15.59,3.19-31.3,7-47.32,3.18-6.38-1.52-12.68-3.84-18.6-6.67-2.53-1.21-4.56-3.47-6.76-5.71Z"/>
      <path class="cls-1" d="M2203.14,174.38c1.38-.31,2.86.12,3.77,1.21.16.19.26.36.29.54,2.29,13.98,6.36,27.7,5.31,42.15-.86,11.7-7.45,19.56-16.58,25.66-1.78,1.19-5.31,1.48-7.18.52-8.81-4.5-17.63-9.12-25.81-14.65-3.59-2.42-6.33-6.09-9.43-9.77-1.27-1.5-1.25-3.71.07-5.16,14.96-16.43,26.44-35.4,49.56-40.5Z"/>
      <path class="cls-1" d="M2748.44,325.42c.12-.55.59-.96,1.15-.99,3.15-.21,6.31-.53,9.46-.54,38.24-.04,76.49-.13,114.73.07,3.72.02,7.3.71,10.81,1.67,10.16,2.8,11,17.19,1.08,20.74-2.38.85-5.05,1.37-8.03,1.54-24.06,1.41-47.78-.76-71.16-7.14-15.35-4.19-31.02-7.24-46.52-10.89-3.58-.84-7.1-1.96-10.63-2.99-.63-.18-1.02-.82-.88-1.47h0Z"/>
      <path class="cls-1" d="M2139.99,241.8c4.26-1.94,3.92-1.74,5.58-1.91,15.72-1.61,25.91,8.63,36.37,18.73,3.31,3.61,3.02,16.92.99,23.84-.51,1.72-1.94,3.01-3.7,3.33-8.62,1.6-32.32,5.91-38.54,5.95-10.31.05-16.99-8.16-15.32-18.39.89-5.51,1.21-11.3,3.51-16.36,4.68-10.29,6.61-13.14,11.13-15.2Z"/>
      <path class="cls-1" d="M2792.67,852.03c-12.5,5-23.86,3.77-35.01,3.08-8.42-.52-16.98-1.72-25.06-4.06-14.93-4.33-28.03-11.82-38.67-23.74-7.89-8.84-8.95-18.4-6.24-29.36,10.93-6.84,23.96-4.83,31.39,5.63,7.04,9.9,13.47,20.23,20.35,30.25,1.39,2.02,3.34,3.9,5.46,5.12,13.31,7.73,27.62,12.1,43.12,12.22.95,0,1.91.34,4.66.86Z"/>
      <path class="cls-1" d="M2138.73,306.05c13.49-7.08,27.34-10.39,41.38-12.09,2.22-.27,4.39.81,5.5,2.75,2.9,5.03,5.58,9.67,8.3,14.4,1.18,2.04.94,4.61-.6,6.4-8.12,9.44-17.04,18.6-28.19,25.47-4.42,2.72-8.23,4.35-12.16-.48-2.8-3.45-6.46-6.41-8.45-10.25-3.06-5.89-5.47-12.12-8.36-19.14-1.09-2.66.04-5.7,2.58-7.04Z"/>
      <path class="cls-1" d="M2808.19,382.88c-1.93-1.78-.69-4.99,1.93-5.03,5.8-.11,10.55,1.39,15.18,3.5,19.13,8.75,36.89,19.69,52.77,33.56,10.27,8.97,20.52,17.95,30.88,26.8.89.76,1.93,1.36,2.97,1.95,1.64.93,1.96,3.17.66,4.53-3.05,3.19-6.16,3.94-9.4,3.38-7.97-1.38-15.42-3.12-22.06-9.23-19.76-18.16-38.1-38.13-62.28-51.04-3.76-2.01-6.98-5.06-10.64-8.43Z"/>
      <path class="cls-1" d="M2329.89,232.06c-9.01,7.19-23.15,14.93-33.64,18.63-4.32,1.52-9.11-.14-11.56-4.01-.86-1.36-1.75-2.67-2.75-3.89-4.37-5.32-5.12-10.51-.77-15.73,6.77-8.12,14.1-15.76,20.98-23.78,3.67-4.28,7.84-4.18,12.41-2.25,5.88,2.48,10.99,5.94,14.08,11.79,1.26,2.38,2.51,4.76,3.74,7.11,2.17,4.12,1.14,9.23-2.5,12.13Z"/>
      <path class="cls-1" d="M2230.75,223.7c-4.06-.03-7.43-3.15-7.77-7.19-.08-.97-.16-1.92-.24-2.88-.86-9.93-1.45-19.89-2.67-29.77-1.64-13.28-1.59-13.47,10.86-17.7,6.06-2.06,11.57-4.26,17.76.41,5.06,3.82,8.07,8.21,7,14.32-2.09,11.96-4.61,23.85-7.24,35.71-.94,4.25-4.03,6.87-8.53,7.03-3.02.11-6.04.11-9.17.09Z"/>
      <path class="cls-1" d="M2289.35,274.36c-.48-2.11.6-4.28,2.49-5.35,16.1-9.11,31.74-17.97,47.79-27.05-.19-.07.45.02.92.36,8.75,6.43,9.55,15.59,8.85,25.37-.23,3.24-.14,6.5-.09,10.01.03,2.07-1.21,3.95-3.12,4.75-1.31.55-2.5,1.04-3.44,1.43s-1.92.49-2.89.3c-5.67-1.13-10-2.63-14.18-2.3-11.19.91-21.59-2.41-32.19-4.73-2.74-.6-3.77-1.14-4.15-2.79Z"/>
      <path class="cls-1" d="M5443.16,924.98c24.07-8.38,65.76-25.97,70.67-28.61,8.53-4.59,33.12-18.55,41.52-30.62,3.77-5.41,12.45-4.17,17.74-.23h0c.66.5.86,1.48.42,2.19-6.79,10.96-12.75,17.02-23.63,22.49-13.63,6.85-100.12,33.06-106.73,34.78Z"/>
      <path class="cls-1" d="M2263.37,228.02c-2.28.51-4.36-1.43-4.05-3.75.64-4.7,1.13-8.56,1.87-12.37,2.33-11.94,5.31-23.78,7.11-35.8.68-4.53,2.8-6.53,6.34-7.69,4.09-1.34,8.65-2.58,12.03,1.22,3.26,3.66,6.1,7.77,8.66,11.97.85,1.39.89,3.93.22,5.48-6.74,15.67-17.29,28.58-29.78,39.97-.52.48-1.27.7-2.4.96Z"/>
      <path class="cls-1" d="M2324.83,328.57c11.87,13.29-1.68,27.87-20.19,11.81-5-4.33-10.15-8.51-14.92-13.09-4.58-4.41-8.87-9.13-14.06-14.64-1.16-1.23-1.09-3.19.17-4.33,1.17-1.05,2.44-2.19,3.87-3.49.89-.81,2.19-1,3.28-.51,6.59,2.97,12.93,5.55,18.88,8.81,6.77,3.71,20.8,13.01,22.97,15.43Z"/>
      <path class="cls-1" d="M2269.28,371.89c-.44,2.91-2.83,5.15-5.76,5.39-17.24,1.45-17.17,1.29-20.91-20.94-1.25-7.44-.28-15.23-.52-22.86-.12-3.73.99-5.96,3.13-7.03,2.61-1.31,5.82-.38,7.6,1.94,17.23,22.36,19.13,25.75,16.47,43.49Z"/>
      <path class="cls-1" d="M2206.68,324.32c2.51-1.61,5.83.25,5.77,3.23-.18,8.7-3.09,16.69-7.12,24.43-1.53,2.94-4.05,5.55-4.88,8.64-2.4,8.92-7.79,11.99-16.85,11.39-7.7-.51-10.49-5.09-12.52-10.75-.42-1.16-.23-2.45.5-3.44,7.99-10.97,24.89-26.95,35.11-33.49Z"/>
      <path class="cls-1" d="M2287.75,292.83c.26-.84.52-1.68.78-2.52.34-1.1,1.17-1.97,2.24-2.39.43-.17.83-.28,1.23-.26,14.2.76,28.44,1.15,42.55,2.74,2.95.33,5.6,3.32,8.34,5.78,1.05.94,1.46,2.41,1.08,3.77-1.08,3.88-1.94,7.33-3.21,10.62-2.63,6.81-6.57,8.65-13.19,5.53-9.84-4.64-19.36-9.96-29.08-14.87-2.64-1.34-5.38-2.48-8.63-3.87-1.76-.75-2.67-2.72-2.1-4.54Z"/>
      <path class="cls-1" d="M2262.01,325.57c-.78-1.65-.33-3.7,1.21-4.68,0,0,.02-.01.02-.02.64-.41,1.31-.77,1.99-1.12,1.36-.7,3-.5,4.16.5,13.17,11.36,26.24,22.64,40.03,34.54,1.54,1.33,1.74,3.66.44,5.23-2.64,3.19-4.97,6.17-7.8,8.56-4.87,4.11-9.61,3.63-14.1-.95-2.77-2.82-5.95-5.84-7.26-9.4-4.16-11.32-11.9-20.46-17.71-30.75-.35-.62-.67-1.26-.98-1.92Z"/>
      <path class="cls-1" d="M2226.84,327.87c2.78-1.2,5.87.95,5.92,3.98.12,7.06.38,13.73-.21,20.32-.64,7.04-2.3,13.99-3.73,21.12-.34,1.7-1.64,3.06-3.34,3.41-5.34,1.11-10.53,4.09-15.8-.17-.85-.69-1.36-1.72-1.49-2.81-.86-7.12,1.47-13.63,5.39-20.22,3.46-5.82,5.51-12.54,7.75-19.02,1.1-3.19,2.67-5.38,5.52-6.62Z"/>
      <path class="cls-2" d="M1408.22,390.45c-5.72.05-11.44.1-17.12.16,5.73-.05,11.42-.1,17.12-.16Z"/>
      <path class="cls-2" d="M196.26,521.65c-.49-.07-.99-.15-1.46-.24.3-1.26.58-2.52.86-3.77.3.02.6.03.9.05-.1,1.32-.2,2.63-.3,3.95Z"/>
      <path class="cls-2" d="M5260.21,1455.13h0c1.35,0,2.64-.69,3.14-1.83.06-.15.1-.29.11-.44.25-6.65.94-15.38,1.9-21.95.92-6.36,17.72-35.74,56.03-43.45,13.84-2.79,27.66-.89,41.57,1.48,43.74,7.46,61.59,39.83,62.76,47.74,2.41,16.29-1.51,31.76-7.79,46.89-.39.93-13.56,19.58-22.14,26.19-3.25,2.51-6.54,5.15-10.27,6.96-8.72,4.21-17.49,8.46-26.65,11.76-10.91,3.92-22.02,7.93-33.46,9.98-22.02,3.95-107.85,6.74-128.33,6.5-5.95-.07-11.87-.71-17.67-1.91-18.76-3.86-109.22-22.99-135.58-29.09-13.13-3.04-106.36-31.02-118.39-34.12-7.69-1.98-346.15-115.51-358.57-118.56-10.64-2.61-133.44-32.04-143.52-33.9-138.21-25.57-286.23-36.92-302.76-38.08-56.69-3.97-113.5-4.69-170.33-4.48-35.06.12-84.16,1.6-119.15,3.06-23.79.99-149.19,18.37-189.5,41.42-97.98,56.03-94.04,100.1-95.03,109.34-4.09,1.23-8.24,2.51-12.41,3.71-26.59,7.7-383.61,113.3-403.9,117.27-189.07,37.03-311.26,3.87-368.92-41.18-17.66-13.8-35.34-34.57-38.8-56.11-13.2-82.13,59.74-112.33,79.74-119.32,16.73-5.85,45.31-15.52,74.75-6.23,23.04,7.27,44.15,21.09,49.08,31.99,15.8,34.85-22.04,57.19-27.87,60.63-15.31,9.04-31.09,8.91-47.13,2.33-9.04-3.71-19.56-8.24-27.25-13.92-31.29-23.1-2.07-36.97-5.5-39.87-3.87-3.28-32.5,15.9-12.65,42.32,8.09,10.77,34.73,36.26,79.32,33.42,20.66-1.32,80.4-31.47,72.89-78.71-2.4-15.09-20.01-57.55-75.2-67.92-20.33-3.82-50.56-7.95-91.39,6.5-59.92,21.22-97.36,64.38-103.04,79.5-22.2,59.02,2.46,105.98,31.83,131.26,66.64,57.35,161.48,83.17,275.34,78.01,26.83-1.22,53.87-2.5,80.27-7.14,95.13-16.73,354.13-93.54,390.23-104.9,22.89-7.2,46.51-12.56,69.94-18.28,7.85-1.92,8.66.97,11.59,7.83,4.37,10.24,23.6,50.13,30.09,56.95,7.27,7.62,55.47,47.14,144.21,41.01,48.29-3.33,120.01-50.64,86.26-116.45-12.67-24.69-28.16-9.5-20.38-.69,30.67,34.74,7.29,75.48-21.33,89.6-43.87,21.64-81.82,13.59-101.69,10.73-76.77-11.04-88.2-52.59-98.19-75.34-4.82-10.98,1.95-23.33,14.46-26.78,23.68-6.52,65.17-17.8,86.48-23.38,26.14-6.84,52.13-14.3,78.33-20.72,103.83-25.46,176.71-30.88,280.99-38.99,98-7.62,226.48,1.13,252.03,3.98,32.82,3.67,65.47,8.94,97.94,14.68,23.41,4.14,46.4,10.24,69.6,15.36,4.17.92,7.37-7.19,2.42-9.21-21.23-8.68-152.51-31.26-158.7-32.06-138.62-17.93-191.69-11.16-225.23-10.58-34.99.61-210.08,8.13-310.4,33.29-140.2,35.16-181.7,42.52-183.89,42.77-.58-5.34.6-28.04,50.44-63.92,48.9-35.2,107.73-46.59,187.57-57.8,90.98-12.78,143.46-6.07,198.42-4.27,258.55,8.47,423.84,48.77,438.6,51.44,15.13,2.73,30.12,6.18,45.06,9.71,24.88,5.88,130.97,32.96,158.56,41.99,23.4,7.65,314.8,102.95,331.35,107.36,11.28,3.01,190.68,41.73,205.64,43.19,25.24,2.47,110.41-1.27,127.51-3.47,22.43-2.88,44.48-8.55,63.9-18.61,13.19-6.83,36.63-18.44,56.61-50.82,1.03-1.68,1.81-3.51,2.6-5.32.8-1.83,14.86-43.08-6.66-71.92-11.31-15.15-27.38-22.62-44.99-28.69-28.57-9.86-57.52-10.76-86.53-1.47-4.54,1.45-29.46,11.33-36.32,24.62-5.59,10.82-9.38,31.03-8.58,43.49.2,3.16,3.08,5.63,6.58,5.63Z"/>
      <path class="cls-2" d="M3277.38,1479.75c-31.43,4.53-96.22,4.68-154.72-27.26-19.85-10.83-39.82-26.51-26.2-62.16,6.28-16.44,34.5-40.35,71.41-14.51,27.1,18.97-14.49,42.6-29.42,35.23-7.84-3.87-5.24,27.39,42,3.81,18.13-9.05,24.58-54.13-19.2-67.82-44.97-14.06-70.29-.02-84.02,14.77-25.87,27.85-18.22,59.6-4.74,73.26,25.44,25.76,61.75,43.07,85.49,51.64,35.57,12.83,93.63,11.29,121.75,5.08,31.24-6.9,65.71-17.27,85.83-26.05,2.27-.99,1.13-4.41-1.28-3.83-22.58,5.41-60.42,14.04-86.91,17.86Z"/>
    </g>
  </g>
</svg>